<svg width="62" height="12" viewBox="0 0 62 12" fill="none" xmlns="http://www.w3.org/2000/svg">
<path d="M7.64986 3H6.59304C6.53054 2.69602 6.42117 2.42898 6.26492 2.19886C6.11151 1.96875 5.92401 1.77557 5.70242 1.61932C5.48366 1.46023 5.24077 1.34091 4.97372 1.26136C4.70668 1.18182 4.42827 1.14205 4.13849 1.14205C3.61009 1.14205 3.13139 1.27557 2.70241 1.54261C2.27628 1.80966 1.93679 2.20312 1.68395 2.72301C1.43395 3.2429 1.30895 3.88068 1.30895 4.63636C1.30895 5.39205 1.43395 6.02983 1.68395 6.54972C1.93679 7.0696 2.27628 7.46307 2.70241 7.73011C3.13139 7.99716 3.61009 8.13068 4.13849 8.13068C4.42827 8.13068 4.70668 8.09091 4.97372 8.01136C5.24077 7.93182 5.48366 7.81392 5.70242 7.65767C5.92401 7.49858 6.11151 7.30398 6.26492 7.07386C6.42117 6.84091 6.53054 6.57386 6.59304 6.27273H7.64986C7.57031 6.71875 7.42543 7.1179 7.2152 7.47017C7.00497 7.82244 6.74361 8.12216 6.43111 8.36932C6.11861 8.61364 5.76776 8.79972 5.37855 8.92756C4.99219 9.0554 4.57884 9.11932 4.13849 9.11932C3.39418 9.11932 2.73224 8.9375 2.1527 8.57386C1.57315 8.21023 1.11719 7.69318 0.784801 7.02273C0.452415 6.35227 0.286222 5.55682 0.286222 4.63636C0.286222 3.71591 0.452415 2.92045 0.784801 2.25C1.11719 1.57955 1.57315 1.0625 2.1527 0.698864C2.73224 0.335227 3.39418 0.153409 4.13849 0.153409C4.57884 0.153409 4.99219 0.217329 5.37855 0.34517C5.76776 0.473011 6.11861 0.660511 6.43111 0.90767C6.74361 1.15199 7.00497 1.45028 7.2152 1.80256C7.42543 2.15199 7.57031 2.55114 7.64986 3ZM11.8803 9.13636C11.2894 9.13636 10.771 8.99574 10.3249 8.71449C9.88175 8.43324 9.53516 8.03977 9.28516 7.53409C9.038 7.02841 8.91442 6.4375 8.91442 5.76136C8.91442 5.07955 9.038 4.48437 9.28516 3.97585C9.53516 3.46733 9.88175 3.07244 10.3249 2.79119C10.771 2.50994 11.2894 2.36932 11.8803 2.36932C12.4712 2.36932 12.9883 2.50994 13.4315 2.79119C13.8775 3.07244 14.2241 3.46733 14.4712 3.97585C14.7212 4.48437 14.8462 5.07955 14.8462 5.76136C14.8462 6.4375 14.7212 7.02841 14.4712 7.53409C14.2241 8.03977 13.8775 8.43324 13.4315 8.71449C12.9883 8.99574 12.4712 9.13636 11.8803 9.13636ZM11.8803 8.23295C12.3292 8.23295 12.6985 8.1179 12.9883 7.88778C13.2781 7.65767 13.4925 7.35511 13.6317 6.98011C13.771 6.60511 13.8406 6.19886 13.8406 5.76136C13.8406 5.32386 13.771 4.91619 13.6317 4.53835C13.4925 4.16051 13.2781 3.85511 12.9883 3.62216C12.6985 3.3892 12.3292 3.27273 11.8803 3.27273C11.4315 3.27273 11.0621 3.3892 10.7724 3.62216C10.4826 3.85511 10.2681 4.16051 10.1289 4.53835C9.9897 4.91619 9.9201 5.32386 9.9201 5.76136C9.9201 6.19886 9.9897 6.60511 10.1289 6.98011C10.2681 7.35511 10.4826 7.65767 10.7724 7.88778C11.0621 8.1179 11.4315 8.23295 11.8803 8.23295ZM16.8619 2.45455L18.43 5.13068L19.9982 2.45455H21.1573L19.0437 5.72727L21.1573 9H19.9982L18.43 6.46023L16.8619 9H15.7028L17.7823 5.72727L15.7028 2.45455H16.8619ZM22.5923 11.4545V2.45455H23.5639V3.49432H23.6832C23.7571 3.38068 23.8594 3.2358 23.9901 3.05966C24.1236 2.88068 24.3139 2.72159 24.5611 2.58239C24.8111 2.44034 25.1491 2.36932 25.5753 2.36932C26.1264 2.36932 26.6122 2.5071 27.0327 2.78267C27.4531 3.05824 27.7813 3.44886 28.017 3.95455C28.2528 4.46023 28.3707 5.05682 28.3707 5.74432C28.3707 6.4375 28.2528 7.03835 28.017 7.54688C27.7813 8.05256 27.4545 8.4446 27.0369 8.72301C26.6193 8.99858 26.1378 9.13636 25.5923 9.13636C25.1719 9.13636 24.8352 9.06676 24.5824 8.92756C24.3295 8.78551 24.1349 8.625 23.9986 8.44602C23.8622 8.2642 23.7571 8.11364 23.6832 7.99432H23.598V11.4545H22.5923ZM23.581 5.72727C23.581 6.22159 23.6534 6.65767 23.7983 7.03551C23.9432 7.41051 24.1548 7.70455 24.4332 7.91761C24.7116 8.12784 25.0526 8.23295 25.456 8.23295C25.8764 8.23295 26.2273 8.12216 26.5085 7.90057C26.7926 7.67614 27.0057 7.375 27.1477 6.99716C27.2926 6.61648 27.3651 6.19318 27.3651 5.72727C27.3651 5.26705 27.294 4.85227 27.152 4.48295C27.0128 4.1108 26.8011 3.81676 26.517 3.60085C26.2358 3.3821 25.8821 3.27273 25.456 3.27273C25.0469 3.27273 24.7031 3.37642 24.4247 3.58381C24.1463 3.78835 23.9361 4.07528 23.794 4.4446C23.652 4.81108 23.581 5.23864 23.581 5.72727ZM31.831 9.15341C31.4162 9.15341 31.0398 9.07528 30.7017 8.91903C30.3636 8.75994 30.0952 8.53125 29.8963 8.23295C29.6974 7.93182 29.598 7.56818 29.598 7.14205C29.598 6.76705 29.6719 6.46307 29.8196 6.23011C29.9673 5.99432 30.1648 5.80966 30.4119 5.67614C30.6591 5.54261 30.9318 5.44318 31.2301 5.37784C31.5313 5.30966 31.8338 5.25568 32.1378 5.21591C32.5355 5.16477 32.858 5.12642 33.1051 5.10085C33.3551 5.07244 33.5369 5.02557 33.6506 4.96023C33.767 4.89489 33.8253 4.78125 33.8253 4.61932V4.58523C33.8253 4.16477 33.7102 3.83807 33.4801 3.60511C33.2528 3.37216 32.9077 3.25568 32.4446 3.25568C31.9645 3.25568 31.5881 3.3608 31.3153 3.57102C31.0426 3.78125 30.8509 4.00568 30.7401 4.24432L29.7855 3.90341C29.956 3.50568 30.1832 3.19602 30.4673 2.97443C30.7543 2.75 31.0668 2.59375 31.4048 2.50568C31.7457 2.41477 32.081 2.36932 32.4105 2.36932C32.6207 2.36932 32.8622 2.39489 33.1349 2.44602C33.4105 2.49432 33.6761 2.59517 33.9318 2.74858C34.1903 2.90199 34.4048 3.13352 34.5753 3.44318C34.7457 3.75284 34.831 4.16761 34.831 4.6875V9H33.8253V8.11364H33.7741C33.706 8.25568 33.5923 8.40767 33.4332 8.5696C33.2741 8.73153 33.0625 8.86932 32.7983 8.98295C32.5341 9.09659 32.2116 9.15341 31.831 9.15341ZM31.9844 8.25C32.3821 8.25 32.7173 8.17188 32.9901 8.01562C33.2656 7.85938 33.473 7.65767 33.6122 7.41051C33.7543 7.16335 33.8253 6.90341 33.8253 6.63068V5.71023C33.7827 5.76136 33.6889 5.80824 33.544 5.85085C33.402 5.89062 33.2372 5.92614 33.0497 5.95739C32.8651 5.9858 32.6847 6.01136 32.5085 6.03409C32.3352 6.05398 32.1946 6.07102 32.0866 6.08523C31.8253 6.11932 31.581 6.17472 31.3537 6.25142C31.1293 6.32528 30.9474 6.4375 30.8082 6.58807C30.6719 6.7358 30.6037 6.9375 30.6037 7.19318C30.6037 7.54261 30.733 7.80682 30.9915 7.9858C31.2528 8.16193 31.5838 8.25 31.9844 8.25ZM41.0472 5.26705V6.20455H37.4336V5.26705H41.0472ZM37.6722 2.45455V9H36.6665V2.45455H37.6722ZM41.8143 2.45455V9H40.8086V2.45455H41.8143ZM44.6566 7.51705L47.81 2.45455H48.9691V9H47.9634V3.9375L44.8271 9H43.6509V2.45455H44.6566V7.51705ZM49.9205 3.39205V2.45455H55.2386V3.39205H53.0909V9H52.0852V3.39205H49.9205ZM57.5749 4.82386H59.4499C60.217 4.82386 60.8036 5.01847 61.2099 5.40767C61.6161 5.79687 61.8192 6.28977 61.8192 6.88636C61.8192 7.27841 61.7283 7.63494 61.5465 7.95597C61.3647 8.27415 61.0977 8.52841 60.7454 8.71875C60.3931 8.90625 59.9613 9 59.4499 9H56.7056V2.45455H57.7113V8.0625H59.4499C59.8477 8.0625 60.1744 7.95739 60.43 7.74716C60.6857 7.53693 60.8136 7.26705 60.8136 6.9375C60.8136 6.59091 60.6857 6.30824 60.43 6.08949C60.1744 5.87074 59.8477 5.76136 59.4499 5.76136H57.5749V4.82386Z" fill="black"/>
</svg>
